<?xml version="1.0" standalone="no"?>
<!DOCTYPE svg PUBLIC "-//W3C//DTD SVG 20010904//EN"
 "http://www.w3.org/TR/2001/REC-SVG-20010904/DTD/svg10.dtd">
<svg version="1.0" xmlns="http://www.w3.org/2000/svg"
 width="1024.000000pt" height="1024.000000pt" viewBox="0 0 1024.000000 1024.000000"
 preserveAspectRatio="xMidYMid meet">
<metadata>
Created by potrace 1.14, written by Peter Selinger 2001-2017
</metadata>
<g transform="translate(0.000000,1024.000000) scale(0.100000,-0.100000)"
fill="#000000" stroke="none">
<path d="M0 5120 l0 -5120 2976 0 c2833 0 2976 1 2963 18 -13 16 -12 16 5 2
23 -18 46 -22 46 -7 0 8 4 7 12 -1 17 -17 58 -15 65 4 5 13 7 13 14 2 7 -11 9
-11 9 0 0 9 8 11 23 8 12 -3 16 -3 9 0 -10 5 -10 9 -1 20 7 8 9 17 5 21 -3 3
-6 1 -6 -5 0 -7 -5 -12 -11 -12 -5 0 -8 4 -5 8 3 5 -1 9 -8 9 -7 0 -11 -8 -9
-17 3 -11 -2 -16 -19 -16 -26 0 -33 20 -23 64 4 15 10 20 18 15 20 -12 38 -12
34 0 -3 7 -10 11 -16 9 -6 -1 -10 1 -10 5 1 5 1 15 -1 23 -1 11 -4 10 -11 -5
-9 -19 -9 -18 -5 3 2 12 0 22 -6 22 -14 0 -5 53 11 58 8 3 11 0 7 -7 -6 -9 20
-10 44 -1 3 2 9 2 14 1 5 -1 3 5 -4 14 -12 14 -11 18 1 26 8 5 22 7 32 5 9 -2
14 0 11 6 -8 12 -56 1 -66 -15 -6 -9 -8 -9 -8 0 0 23 13 43 29 44 13 0 13 2
-2 8 -17 6 -17 8 2 25 12 11 21 25 21 32 0 7 6 11 13 8 7 -2 22 4 32 16 10 11
13 20 7 20 -7 0 -12 -5 -12 -11 0 -5 -5 -7 -12 -3 -7 4 -8 3 -4 -5 5 -8 0 -10
-18 -7 -14 3 -28 0 -31 -5 -4 -5 -1 -9 4 -9 6 0 11 -4 11 -10 0 -5 -13 -8 -28
-7 -28 2 -32 8 -33 50 0 15 -3 16 -15 7 -17 -15 -19 -34 -2 -24 8 5 9 0 5 -15
-6 -23 17 -42 42 -33 9 3 11 0 6 -7 -4 -7 -13 -10 -21 -7 -11 4 -12 2 -4 -14
13 -24 13 -30 0 -30 -5 0 -10 8 -10 18 0 22 -29 64 -39 57 -5 -2 -6 7 -3 22 3
18 1 24 -7 19 -6 -4 -8 -12 -5 -18 4 -7 2 -8 -5 -4 -9 6 -9 11 0 22 6 8 14 12
16 10 3 -3 10 0 17 5 6 5 20 16 30 23 14 9 16 17 9 29 -8 15 -11 16 -28 2 -19
-13 -19 -14 -2 -15 11 0 15 -5 11 -11 -10 -16 -36 14 -29 34 4 8 13 13 21 10
10 -4 12 0 8 11 -4 11 -1 16 11 16 9 0 14 -4 10 -9 -3 -5 -1 -12 5 -16 6 -4
10 5 10 19 0 15 -5 24 -12 22 -7 -1 -9 -1 -5 2 4 2 2 11 -4 19 -7 8 -13 23
-14 33 -1 17 0 17 21 2 15 -12 19 -21 13 -29 -6 -7 -6 -13 0 -17 5 -4 13 3 16
15 5 15 2 25 -9 31 -9 5 -16 14 -16 19 0 6 5 7 12 3 7 -4 8 -3 4 4 -4 7 -4 18
1 24 8 13 9 19 12 39 1 8 6 8 16 -1 13 -11 14 -10 9 3 -3 8 -12 18 -20 21 -8
3 -11 12 -8 21 6 14 8 13 21 -2 8 -10 12 -12 8 -6 -3 7 -1 13 4 13 6 0 11 -5
11 -12 0 -6 3 -8 7 -4 5 4 1 13 -8 19 -9 7 -16 16 -17 22 0 5 -6 11 -14 13 -9
2 -8 0 2 -7 8 -6 10 -11 4 -11 -7 0 -19 11 -28 25 -9 14 -22 23 -28 19 -7 -4
-8 -3 -4 4 4 6 13 9 21 5 24 -9 17 7 -7 17 -21 8 -20 9 7 8 41 -2 48 -7 34
-24 -9 -11 -8 -14 3 -14 21 0 20 38 -2 45 -11 4 -17 12 -14 20 3 8 -2 22 -11
32 -15 14 -15 18 -3 27 15 12 13 46 -4 46 -5 0 -8 -6 -5 -13 3 -8 -1 -14 -8
-14 -8 0 -14 3 -13 6 0 3 -1 8 -2 11 -6 15 -6 48 1 45 4 -3 14 6 23 20 15 22
15 25 -1 34 -10 5 -15 13 -11 17 4 4 15 1 25 -7 11 -9 14 -10 9 -1 -4 8 -1 12
10 12 15 0 15 -2 1 -24 -15 -23 -15 -24 8 -22 14 0 20 5 15 10 -5 5 -5 17 1
28 7 12 6 18 -1 18 -6 0 -8 5 -5 10 4 6 2 16 -4 23 -13 17 1 38 27 40 11 0 19
4 16 8 -7 13 -45 1 -60 -18 -12 -16 -13 -16 -14 -2 0 9 9 23 20 30 15 11 17
17 9 29 -9 13 -10 12 -5 -3 3 -9 1 -17 -4 -17 -10 0 -14 14 -10 40 3 22 8 24
25 10 11 -9 18 -10 28 -1 8 6 17 8 21 4 4 -4 4 0 1 10 -6 15 -9 15 -22 1 -11
-11 -19 -12 -28 -4 -17 14 -38 9 -47 -10 -4 -10 -7 -7 -7 10 -1 17 -4 21 -10
12 -6 -10 -10 -10 -19 1 -10 12 -7 14 15 14 16 0 44 3 63 6 19 4 53 9 75 11
101 10 233 28 268 37 21 6 73 17 115 24 129 24 265 53 312 68 25 8 72 22 105
32 33 10 74 24 90 31 17 7 75 29 130 50 55 20 118 44 140 54 141 63 223 104
308 154 53 31 141 81 195 112 53 31 122 76 153 99 31 24 65 48 75 53 44 24
252 186 327 253 120 109 330 323 400 409 34 41 64 77 67 80 13 11 171 221 204
271 20 30 52 75 70 100 48 65 219 384 293 545 104 227 168 417 217 639 15 66
33 149 41 185 47 211 57 296 63 528 13 434 -4 664 -73 997 -69 336 -99 436
-211 691 -24 56 -44 104 -44 107 0 13 -95 205 -120 242 -15 22 -41 69 -59 105
-18 36 -40 79 -49 95 -36 62 -183 275 -232 335 -361 447 -621 687 -1030 955
-228 150 -256 165 -455 261 -247 118 -511 210 -745 259 -69 15 -135 31 -146
35 -22 9 -185 34 -287 45 -31 4 -55 11 -52 16 4 5 2 9 -4 9 -5 0 -13 -5 -16
-10 -4 -6 -14 -9 -23 -6 -10 3 -43 6 -74 7 -31 1 -55 6 -52 11 7 11 -40 5 -48
-7 -4 -5 -6 0 -5 12 0 12 5 19 10 16 5 -3 6 5 2 18 -7 22 -6 22 9 10 15 -13
18 -12 23 7 3 12 9 19 14 16 5 -3 9 0 9 5 0 6 -5 11 -11 11 -5 0 -7 4 -4 10 3
6 -1 7 -10 3 -13 -4 -14 -8 -4 -14 23 -14 -16 -22 -41 -9 -18 10 -21 10 -14
-2 16 -25 12 -36 -15 -44 -14 -4 -30 -7 -34 -6 -4 1 -10 -5 -13 -13 -4 -8 -11
-15 -16 -15 -6 0 -5 6 2 15 6 8 9 18 6 24 -3 5 1 12 10 15 23 9 31 7 15 -3 -7
-5 -9 -11 -4 -14 6 -4 18 0 29 7 16 12 17 16 4 31 -8 10 -15 37 -16 60 0 39 1
41 17 27 15 -13 15 -17 3 -29 -14 -14 -19 -43 -8 -43 17 0 43 22 38 33 -2 7 6
19 19 26 27 14 32 41 8 42 -10 0 -12 2 -3 6 17 7 15 33 -3 33 -8 0 -15 4 -15
10 0 5 5 9 11 7 16 -3 21 36 6 45 -8 5 -8 11 -2 16 13 10 18 35 5 27 -5 -3
-10 1 -10 9 0 9 5 16 10 16 6 0 10 5 10 11 0 5 -5 7 -12 3 -7 -5 -9 -2 -6 8 8
19 -11 49 -19 30 -2 -6 -9 -10 -14 -6 -13 8 -11 41 3 50 8 5 9 2 5 -9 -3 -9
-3 -16 1 -16 20 3 32 -2 32 -15 0 -24 26 -38 40 -22 10 13 8 15 -9 11 -22 -4
-30 10 -9 17 8 3 2 13 -15 28 -18 16 -25 31 -23 47 5 24 -8 41 -17 23 -3 -6
-4 -5 -3 2 1 7 16 15 31 18 37 6 35 23 -4 34 -34 10 -35 13 -22 49 11 29 3 70
-12 60 -6 -4 -7 -1 -3 6 5 7 14 10 21 7 7 -2 18 6 25 20 8 13 17 24 22 24 11
0 -6 -33 -26 -50 -22 -18 -20 -25 9 -25 19 0 23 4 19 17 -3 10 0 27 6 38 11
21 12 21 26 3 13 -17 14 -17 7 2 -4 11 -13 26 -21 34 -7 8 -12 25 -9 38 2 12
0 23 -4 23 -8 0 -13 -15 -10 -32 0 -5 -6 -8 -14 -8 -13 0 -13 4 -3 23 7 12 19
26 26 30 6 4 12 15 12 23 0 8 -5 12 -10 9 -6 -4 -8 -10 -5 -15 7 -12 -20 -19
-36 -9 -11 7 -11 9 -1 9 9 0 11 7 6 23 -9 30 -11 32 -29 17 -19 -16 -20 -1 -1
26 13 17 13 21 1 21 -8 0 -11 -5 -8 -10 3 -6 1 -7 -5 -3 -6 4 -8 14 -5 24 6
15 5 15 -10 3 -9 -7 -14 -18 -10 -25 4 -6 9 -19 10 -29 3 -15 1 -16 -11 -5 -7
7 -11 19 -8 27 3 9 1 12 -6 7 -8 -5 -10 -2 -6 8 3 9 9 16 13 16 16 1 42 30 36
40 -5 8 -17 2 -39 -17 -30 -27 -30 -27 -7 -1 13 15 20 32 16 38 -13 22 -13 67
0 67 7 0 11 -6 8 -12 -2 -7 3 -15 11 -18 9 -4 16 -14 16 -22 0 -9 4 -14 9 -10
5 3 12 1 15 -4 4 -5 2 -12 -4 -16 -6 -4 -8 -11 -5 -16 4 -5 1 -9 -4 -9 -6 0
-11 -4 -11 -10 0 -21 18 -9 28 18 6 18 6 33 -1 44 -14 21 7 48 37 49 20 0 20
1 1 8 -11 5 -22 4 -23 -1 -2 -5 -11 -3 -19 4 -14 11 -15 10 -8 -11 5 -16 4
-21 -4 -17 -6 4 -11 14 -11 21 0 13 -416 15 -3025 15 l-3025 0 0 -5120z m5973
5079 c-8 -8 -13 -7 -18 2 -5 8 -4 10 3 5 7 -4 12 -2 12 5 0 7 3 9 7 6 4 -4 2
-12 -4 -18z m-16 -84 c0 -8 -4 -12 -9 -9 -5 3 -6 10 -3 15 9 13 12 11 12 -6z
m102 -111 c-10 -13 -9 -16 10 -21 16 -4 19 -8 10 -14 -8 -4 -19 1 -31 16 -22
28 -23 35 -3 35 8 0 15 6 16 13 0 9 2 9 6 -1 3 -7 -1 -19 -8 -28z m-35 -15
c-2 -4 -12 -5 -21 -2 -10 4 -12 8 -6 10 7 3 10 12 7 21 -5 14 -3 14 10 -2 8
-10 13 -23 10 -27z m-37 25 c-3 -3 -12 -4 -19 -1 -8 3 -5 6 6 6 11 1 17 -2 13
-5z m41 -69 c-3 -3 -9 2 -12 12 -6 14 -5 15 5 6 7 -7 10 -15 7 -18z m-18 -19
c0 -2 -8 -10 -17 -17 -16 -13 -17 -12 -4 4 13 16 21 21 21 13z m110 -18 c0 -4
-11 -7 -25 -6 -14 1 -25 6 -25 10 0 4 11 7 25 6 14 -1 25 -6 25 -10z m-70 -18
c0 -5 -5 -10 -11 -10 -5 0 -7 5 -4 10 3 6 8 10 11 10 2 0 4 -4 4 -10z m40 -10
c0 -5 -2 -10 -4 -10 -3 0 -8 5 -11 10 -3 6 -1 10 4 10 6 0 11 -4 11 -10z m-35
-79 c3 -5 1 -12 -4 -15 -5 -4 -11 0 -14 6 -2 7 -8 10 -12 6 -4 -4 -2 -14 4
-22 8 -10 9 -16 1 -21 -5 -3 -10 -1 -10 5 0 6 -5 8 -12 4 -6 -4 -9 -3 -6 2 3
5 8 17 11 27 7 18 32 23 42 8z m-54 -84 c-10 -9 -11 -8 -5 6 3 10 9 15 12 12
3 -3 0 -11 -7 -18z m77 -12 c3 -3 -4 -4 -16 -2 -12 2 -24 6 -28 10 -4 3 4 4
16 2 12 -2 25 -7 28 -10z m-51 -89 c0 -22 -5 -37 -14 -40 -9 -4 -11 -2 -6 7 4
6 8 23 9 37 1 27 2 30 7 30 1 0 3 -15 4 -34z m33 24 c0 -5 -5 -10 -11 -10 -5
0 -7 5 -4 10 3 6 8 10 11 10 2 0 4 -4 4 -10z m-69 -53 c-10 -9 -11 -8 -5 6 3
10 9 15 12 12 3 -3 0 -11 -7 -18z m16 -69 c-3 -8 -6 -5 -6 6 -1 11 2 17 5 13
3 -3 4 -12 1 -19z m58 2 c-3 -5 -12 -7 -20 -3 -24 9 -17 -7 8 -18 22 -9 21 -9
-3 -5 -14 3 -31 -1 -42 -11 -11 -10 -18 -12 -18 -4 0 6 7 14 15 17 8 4 15 12
15 20 0 8 10 14 26 14 14 0 23 -4 19 -10z m5 -44 c0 -3 -4 -8 -10 -11 -5 -3
-10 -1 -10 4 0 6 5 11 10 11 6 0 10 -2 10 -4z m-26 -37 c-3 -6 -12 -3 -20 8
-9 12 -13 13 -14 5 0 -7 -5 -10 -11 -6 -8 4 -7 9 2 15 16 10 52 -8 43 -22z
m-33 -23 c-1 -3 -4 -6 -8 -7 -5 0 -14 -5 -20 -11 -19 -15 -16 -2 3 17 15 15
27 15 25 1z m53 -7 c-9 -10 -13 -22 -10 -27 6 -10 -30 -9 -41 2 -5 4 -1 6 7 4
8 -1 14 2 15 7 1 18 14 32 30 32 13 0 13 -2 -1 -18z m-56 -52 c2 -11 -3 -17
-15 -16 -11 0 -13 3 -5 6 10 4 10 8 0 21 -11 13 -11 14 2 10 8 -2 16 -12 18
-21z m59 -17 c-2 -24 -7 -25 -33 -5 -18 14 -18 14 4 8 13 -3 22 -1 22 6 0 6 2
11 4 11 3 0 4 -9 3 -20z m-113 -28 c3 -5 -1 -9 -9 -9 -8 0 -12 4 -9 9 3 4 7 8
9 8 2 0 6 -4 9 -8z m40 -61 c1 -25 -1 -28 -17 -19 -17 9 -17 11 -3 27 9 10 14
21 11 24 -3 4 -2 5 2 2 3 -3 7 -18 7 -34z m-44 -91 c0 -5 -2 -10 -4 -10 -3 0
-8 5 -11 10 -3 6 -1 10 4 10 6 0 11 -4 11 -10z m-2761 -2598 c20 -21 53 -69
73 -107 21 -39 45 -83 54 -100 9 -16 22 -39 27 -50 66 -128 101 -192 116 -211
10 -13 35 -56 55 -96 20 -40 41 -80 46 -88 5 -8 31 -51 56 -95 164 -281 212
-365 224 -396 7 -19 17 -38 22 -43 4 -6 8 268 8 607 l0 617 263 0 262 0 -3
-1160 -2 -1160 -288 0 -287 1 -102 177 c-55 97 -139 254 -185 348 -47 95 -94
185 -105 200 -11 16 -37 67 -57 114 -21 47 -56 118 -77 157 -50 91 -121 259
-161 381 -16 50 -34 92 -39 92 -10 0 -10 -6 18 -160 15 -81 18 -182 20 -702
l3 -608 -260 0 -260 0 0 1160 0 1160 271 0 271 0 37 -38z m2221 -279 c81 -28
174 -80 211 -120 64 -69 140 -166 158 -202 34 -66 72 -195 96 -324 30 -155 52
-516 33 -528 -11 -7 -174 -16 -288 -17 -160 0 -636 -24 -645 -33 -14 -14 22
-144 61 -217 72 -134 130 -168 268 -160 104 7 136 22 217 103 l64 64 127 1
126 0 11 -50 c13 -59 5 -190 -14 -241 -10 -25 -11 -39 -3 -47 11 -11 2 -15
-59 -27 -20 -4 -42 -19 -59 -43 -47 -62 -90 -99 -141 -122 -184 -83 -321 -103
-480 -71 -130 26 -218 62 -268 109 -22 20 -52 46 -65 57 -34 27 -117 139 -144
195 -97 194 -134 421 -123 749 9 260 31 361 118 547 10 22 19 44 19 48 0 14
92 128 151 186 74 72 219 145 320 160 77 10 256 1 309 -17z m3505 12 c169 -36
269 -80 303 -133 9 -15 29 -40 45 -57 58 -61 141 -244 161 -356 l6 -36 -82 -7
c-46 -4 -130 -9 -188 -13 l-105 -6 -59 69 c-77 90 -104 109 -177 124 -110 23
-269 -14 -299 -70 -24 -45 -2 -93 58 -124 64 -33 265 -105 337 -121 41 -9 197
-71 269 -107 115 -58 230 -192 260 -303 27 -102 37 -231 26 -330 -24 -209 -42
-262 -126 -360 -35 -42 -68 -84 -74 -94 -22 -42 -147 -93 -304 -125 -168 -34
-457 -11 -591 49 -79 34 -165 96 -222 159 -38 41 -62 83 -98 166 -25 61 -45
120 -43 132 4 26 43 41 200 74 175 36 182 35 248 -34 105 -110 206 -162 317
-162 136 0 234 89 218 198 -7 48 -54 100 -117 133 -44 23 -265 93 -323 103
-22 4 -86 30 -142 57 -134 66 -196 125 -257 247 -40 79 -47 104 -61 211 -16
123 -14 154 16 291 28 123 136 274 246 343 45 28 163 73 228 87 68 14 255 11
330 -5z m-1677 -58 c6 -5 12 -19 12 -32 0 -31 31 -212 79 -465 66 -343 81
-433 81 -472 0 -21 5 -38 10 -38 6 0 10 16 10 35 0 41 52 340 81 470 12 50 25
110 29 135 5 25 20 97 35 160 15 63 32 139 38 168 l10 52 254 0 c196 0 253 -3
253 -12 0 -7 -5 -33 -11 -58 -6 -25 -16 -76 -24 -115 -12 -68 -31 -145 -59
-250 -23 -85 -54 -227 -60 -280 -4 -27 -13 -77 -21 -110 -20 -86 -54 -253 -60
-300 -6 -39 -15 -84 -54 -276 -11 -53 -32 -170 -46 -260 -14 -90 -35 -199 -46
-241 l-21 -77 -271 2 -271 2 -18 48 c-22 60 -44 159 -68 307 -10 63 -28 165
-39 225 -53 293 -71 402 -77 476 -7 80 -19 109 -28 67 -8 -35 -53 -306 -61
-363 -4 -27 -19 -104 -35 -170 -16 -66 -36 -165 -44 -220 -27 -166 -45 -257
-62 -312 -15 -46 -20 -53 -43 -53 -131 -2 -516 1 -519 4 -16 17 -84 353 -127
631 -7 50 -18 113 -24 140 -15 68 -54 274 -81 420 -11 66 -33 172 -47 235 -14
63 -34 165 -44 225 -10 61 -23 130 -28 155 -5 25 -12 69 -16 98 l-6 52 263 -2
262 -3 8 -35 c4 -19 12 -66 18 -105 6 -38 19 -117 30 -175 10 -58 28 -161 40
-230 12 -69 26 -145 31 -169 21 -92 39 -208 39 -248 0 -65 17 -51 25 20 10 98
71 417 105 552 10 39 21 95 25 125 4 30 13 70 20 90 7 19 18 68 25 107 l13 72
136 3 c226 5 365 3 379 -5z m-4276 -2652 c158 -34 475 -149 586 -213 26 -15
67 -36 92 -45 60 -23 263 -135 380 -212 52 -34 115 -73 140 -87 38 -22 232
-158 265 -186 10 -8 148 -116 192 -150 130 -101 341 -323 414 -437 27 -42 69
-156 69 -187 0 -29 -57 -84 -112 -108 -48 -21 -63 -22 -183 -17 -121 4 -244
27 -310 57 -25 12 -93 36 -165 59 -63 20 -96 35 -235 102 -474 232 -936 634
-1219 1062 -167 252 -196 349 -111 370 42 10 126 6 197 -8z m3146 -2432 c-6
-7 -15 -10 -21 -6 -6 4 -3 9 9 14 16 6 14 8 -11 9 -18 2 -23 4 -12 7 9 2 17 9
17 16 0 6 6 2 14 -9 10 -13 11 -23 4 -31z m-81 -5 c-3 -8 -6 -5 -6 6 -1 11 2
17 5 13 3 -3 4 -12 1 -19z m111 -56 c2 -6 -6 -15 -17 -21 -20 -11 -33 2 -24
26 5 14 36 10 41 -5z m-81 1 c-10 -3 -14 -9 -10 -16 4 -7 -1 -6 -10 2 -22 17
-22 16 11 18 15 0 19 -1 9 -4z m30 -69 c-8 -8 -48 -13 -43 -6 2 4 14 8 26 9
12 1 20 0 17 -3z m-110 -109 c0 -8 -4 -12 -9 -9 -5 3 -6 10 -3 15 9 13 12 11
12 -6z m104 -72 c7 -10 9 -15 5 -11 -5 4 -16 2 -25 -5 -14 -10 -14 -10 -4 4 7
9 10 19 6 22 -3 4 -4 7 -1 7 3 0 12 -8 19 -17z m-41 -9 c0 -8 -19 -13 -24 -6
-3 5 1 9 9 9 8 0 15 -2 15 -3z m13 -47 c3 -8 -1 -14 -8 -14 -7 0 -11 6 -8 14
3 7 6 13 8 13 2 0 5 -6 8 -13z m12 -37 c-3 -5 -1 -10 6 -10 7 0 10 -3 6 -6 -9
-9 -28 6 -22 17 4 5 8 9 11 9 3 0 2 -4 -1 -10z m41 -35 c-3 -8 -1 -17 4 -20 5
-3 7 -12 4 -20 -4 -8 -10 -12 -15 -9 -5 3 -6 10 -3 16 4 6 1 8 -7 6 -8 -3 -13
-11 -11 -17 4 -20 -17 -12 -29 12 -11 19 -10 20 3 10 12 -11 17 -9 26 13 7 14
12 33 12 42 1 15 2 15 11 -1 6 -10 8 -25 5 -32z m-110 10 c-1 -8 -8 -21 -16
-28 -7 -6 -11 -7 -8 -2 3 6 8 18 11 28 8 21 16 23 13 2z m26 -23 c-7 -2 -12
-11 -12 -19 0 -9 -3 -14 -6 -10 -10 10 7 48 19 40 8 -5 8 -8 -1 -11z m23 -42
c3 -5 1 -10 -4 -10 -6 0 -11 5 -11 10 0 6 2 10 4 10 3 0 8 -4 11 -10z m15 -35
c5 3 11 2 14 -3 2 -4 -4 -9 -15 -9 -12 -1 -19 4 -18 15 0 11 2 12 6 4 2 -6 9
-10 13 -7z m-25 -73 c-3 -3 -11 0 -18 7 -9 10 -8 11 6 5 10 -3 15 -9 12 -12z
m-10 -38 c0 -25 -10 -23 -17 4 -3 10 0 19 6 19 6 0 11 -10 11 -23z m26 -1 c-8
-15 -10 -15 -11 -2 0 17 10 32 18 25 2 -3 -1 -13 -7 -23z m-44 -68 c0 -8 -4
-12 -9 -9 -5 3 -6 10 -3 15 9 13 12 11 12 -6z m-3 -141 c3 -8 2 -12 -4 -9 -6
3 -10 10 -10 16 0 14 7 11 14 -7z m46 -23 c0 -20 -13 -41 -21 -35 -15 9 -10
44 6 44 8 0 15 -4 15 -9z m30 -32 c0 -5 -4 -9 -10 -9 -5 0 -10 7 -10 16 0 8 5
12 10 9 6 -3 10 -10 10 -16z m-97 -89 c3 -11 1 -18 -4 -14 -5 3 -9 12 -9 20 0
20 7 17 13 -6z m31 6 c-3 -8 2 -16 13 -19 15 -4 16 -5 1 -6 -19 -1 -32 14 -23
29 9 15 15 12 9 -4z m-61 -11 c-3 -9 -8 -14 -10 -11 -3 3 -2 9 2 15 9 16 15
13 8 -4z m52 -85 c3 -5 1 -10 -4 -10 -6 0 -11 5 -11 10 0 6 2 10 4 10 3 0 8
-4 11 -10z"/>
<path d="M5170 5844 c-73 -31 -137 -114 -169 -218 -11 -37 -21 -83 -21 -102
l0 -34 246 0 246 0 -7 33 c-15 70 -56 203 -70 223 -44 68 -113 115 -167 114
-13 -1 -39 -8 -58 -16z"/>
<path d="M6095 10190 c-3 -5 -1 -10 4 -10 6 0 11 5 11 10 0 6 -2 10 -4 10 -3
0 -8 -4 -11 -10z"/>
<path d="M6020 10170 c0 -5 5 -10 10 -10 6 0 10 5 10 10 0 6 -4 10 -10 10 -5
0 -10 -4 -10 -10z"/>
<path d="M6115 10152 c-5 -4 -11 -14 -13 -22 -2 -12 1 -11 11 2 8 10 17 15 20
11 4 -3 7 -1 7 5 0 14 -10 15 -25 4z"/>
<path d="M6085 10100 c-3 -6 1 -7 9 -4 18 7 21 14 7 14 -6 0 -13 -4 -16 -10z"/>
<path d="M6106 10078 c3 -5 10 -6 15 -3 13 9 11 12 -6 12 -8 0 -12 -4 -9 -9z"/>
<path d="M6155 10039 c-9 -14 -2 -20 14 -10 8 6 9 11 3 15 -6 3 -14 1 -17 -5z"/>
<path d="M6141 9974 c0 -11 3 -14 6 -6 3 7 2 16 -1 19 -3 4 -6 -2 -5 -13z"/>
<path d="M6210 9976 c0 -2 8 -10 18 -17 15 -13 16 -12 3 4 -13 16 -21 21 -21
13z"/>
<path d="M6167 9933 c-3 -5 -2 -14 2 -21 6 -9 10 -9 22 1 8 6 12 11 10 10 -2
-2 -10 2 -17 8 -7 5 -15 6 -17 2z"/>
<path d="M6194 9853 c1 -12 5 -25 9 -28 4 -3 5 -2 2 2 -3 3 1 13 8 21 8 11 8
14 0 9 -6 -4 -14 -1 -17 5 -2 7 -4 3 -2 -9z"/>
<path d="M6076 9779 c-15 -26 -16 -33 -5 -40 8 -5 20 -7 27 -4 8 3 21 5 29 5
12 0 13 3 3 15 -11 13 -14 13 -27 0 -19 -20 -29 -19 -13 0 9 11 9 15 1 15 -7
0 -9 5 -6 10 4 6 11 8 16 5 5 -4 9 1 9 9 0 25 -14 19 -34 -15z"/>
<path d="M6126 9794 c-5 -14 -4 -15 9 -4 17 14 19 20 6 20 -5 0 -12 -7 -15
-16z"/>
<path d="M6140 9770 c0 -5 5 -10 11 -10 5 0 7 5 4 10 -3 6 -8 10 -11 10 -2 0
-4 -4 -4 -10z"/>
<path d="M6086 9665 c-7 -19 3 -19 28 0 19 15 19 15 -1 15 -11 0 -23 -7 -27
-15z"/>
<path d="M6140 9666 c0 -2 6 -9 13 -15 10 -8 14 -7 14 4 0 8 -6 15 -14 15 -7
0 -13 -2 -13 -4z"/>
<path d="M6090 9626 c0 -9 5 -16 10 -16 6 0 10 4 10 9 0 6 -4 13 -10 16 -5 3
-10 -1 -10 -9z"/>
<path d="M6135 9630 c4 -6 1 -19 -7 -28 -12 -15 -11 -16 5 -3 19 15 23 41 6
41 -5 0 -7 -5 -4 -10z"/>
<path d="M6160 9555 c6 -8 8 -20 4 -27 -5 -10 -4 -10 5 -2 13 12 5 44 -11 44
-6 0 -5 -6 2 -15z"/>
<path d="M6120 9495 c-6 -8 -9 -19 -6 -24 4 -5 2 -12 -4 -16 -7 -4 -7 -12 0
-25 7 -13 7 -21 -1 -25 -6 -4 -7 -14 -4 -24 9 -21 13 -41 14 -64 1 -15 3 -16
15 -5 8 7 10 16 4 19 -5 3 -2 12 7 19 8 7 15 20 14 29 0 10 -4 7 -10 -8 -9
-23 -10 -23 -23 -5 -8 10 -11 25 -8 33 4 10 7 11 10 3 2 -7 8 -9 13 -6 6 3 3
11 -6 18 -18 13 -10 50 9 40 6 -3 2 1 -8 10 -16 13 -17 18 -6 31 7 8 10 15 7
15 -2 0 -10 -7 -17 -15z"/>
<path d="M6085 9270 c-3 -5 -1 -10 4 -10 6 0 11 5 11 10 0 6 -2 10 -4 10 -3 0
-8 -4 -11 -10z"/>
<path d="M6160 1191 c0 -5 5 -13 10 -16 6 -3 10 -2 10 4 0 5 -4 13 -10 16 -5
3 -10 2 -10 -4z"/>
<path d="M6172 1026 c7 -8 15 -12 17 -11 5 6 -10 25 -20 25 -5 0 -4 -6 3 -14z"/>
<path d="M6091 987 c-11 -17 -11 -19 3 -14 9 4 16 2 16 -4 0 -6 7 -4 15 5 19
19 19 23 -3 28 -12 3 -24 -2 -31 -15z"/>
<path d="M6153 971 c1 -11 7 -17 14 -14 7 3 13 1 13 -5 0 -18 -29 -21 -39 -4
-9 15 -10 14 -11 -6 0 -13 4 -21 9 -17 6 3 15 -3 21 -12 7 -12 10 -13 7 -3 -2
8 3 20 12 27 14 10 14 14 -6 32 -20 19 -22 20 -20 2z"/>
<path d="M6115 890 c-3 -5 1 -10 9 -10 9 0 16 5 16 10 0 6 -4 10 -9 10 -6 0
-13 -4 -16 -10z"/>
<path d="M6170 869 c0 -5 -4 -8 -8 -5 -5 3 -9 -1 -9 -9 0 -10 4 -12 12 -5 7 5
15 7 18 3 4 -3 7 1 7 10 0 10 -4 17 -10 17 -5 0 -10 -5 -10 -11z"/>
<path d="M6180 829 c0 -5 5 -7 10 -4 6 3 10 8 10 11 0 2 -4 4 -10 4 -5 0 -10
-5 -10 -11z"/>
<path d="M6210 691 c0 -6 4 -13 10 -16 6 -3 7 1 4 9 -7 18 -14 21 -14 7z"/>
<path d="M6130 570 c0 -5 5 -10 11 -10 5 0 7 5 4 10 -3 6 -8 10 -11 10 -2 0
-4 -4 -4 -10z"/>
<path d="M6123 538 c4 -10 2 -18 -3 -18 -6 0 -10 -5 -10 -12 0 -8 6 -6 17 5
14 14 15 19 4 29 -11 11 -13 10 -8 -4z"/>
<path d="M6160 516 c0 -2 8 -10 18 -17 15 -13 16 -12 3 4 -13 16 -21 21 -21
13z"/>
<path d="M6110 479 c0 -5 5 -7 10 -4 6 3 10 8 10 11 0 2 -4 4 -10 4 -5 0 -10
-5 -10 -11z"/>
<path d="M6151 454 c-9 -11 -16 -13 -24 -5 -18 18 -27 13 -27 -13 0 -14 -4
-28 -10 -31 -5 -3 -10 -13 -10 -22 0 -14 2 -14 20 2 11 10 17 21 14 26 -2 4 9
15 26 24 16 8 30 20 30 25 0 13 -2 12 -19 -6z"/>
<path d="M6210 290 c0 -5 5 -10 11 -10 5 0 7 5 4 10 -3 6 -8 10 -11 10 -2 0
-4 -4 -4 -10z"/>
<path d="M6055 190 c-6 -10 63 -80 78 -80 7 0 6 4 -3 10 -10 6 -11 10 -2 10 6
0 12 5 12 11 0 8 -4 8 -14 0 -17 -14 -32 2 -20 21 4 6 3 8 -4 4 -6 -3 -13 -2
-17 3 -3 5 2 14 11 19 14 8 12 10 -10 10 -14 0 -28 -4 -31 -8z"/>
<path d="M6151 191 c-8 -5 -9 -11 -3 -15 5 -3 12 1 16 9 6 17 6 18 -13 6z"/>
<path d="M10080 80 l0 -80 80 0 80 0 0 80 0 80 -80 0 -80 0 0 -80z"/>
<path d="M6053 85 c0 -8 4 -15 9 -15 4 0 8 4 8 9 0 6 -4 12 -8 15 -5 3 -9 -1
-9 -9z"/>
<path d="M6176 88 c7 -10 24 -10 24 0 0 5 -7 9 -15 9 -8 0 -12 -4 -9 -9z"/>
</g>
</svg>
